<?xml version="1.0" encoding="UTF-8" standalone="no"?>
<!-- Created with Inkscape (http://www.inkscape.org/) -->

<svg
   xmlns:dc="http://purl.org/dc/elements/1.1/"
   xmlns:cc="http://creativecommons.org/ns#"
   xmlns:rdf="http://www.w3.org/1999/02/22-rdf-syntax-ns#"
   xmlns:svg="http://www.w3.org/2000/svg"
   xmlns="http://www.w3.org/2000/svg"
   xmlns:sodipodi="http://sodipodi.sourceforge.net/DTD/sodipodi-0.dtd"
   xmlns:inkscape="http://www.inkscape.org/namespaces/inkscape"
   width="744.09448819"
   height="1052.3622047"
   id="svg2"
   version="1.1"
   inkscape:version="0.48.0 r9654"
   sodipodi:docname="New document 1">
  <defs
     id="defs4" />
  <sodipodi:namedview
     id="base"
     pagecolor="#ffffff"
     bordercolor="#666666"
     borderopacity="1.0"
     inkscape:pageopacity="0.0"
     inkscape:pageshadow="2"
     inkscape:zoom="0.35"
     inkscape:cx="375"
     inkscape:cy="520"
     inkscape:document-units="px"
     inkscape:current-layer="layer1"
     showgrid="false"
     inkscape:window-width="1440"
     inkscape:window-height="832"
     inkscape:window-x="-8"
     inkscape:window-y="-8"
     inkscape:window-maximized="1" />
  <metadata
     id="metadata7">
    <rdf:RDF>
      <cc:Work
         rdf:about="">
        <dc:format>image/svg+xml</dc:format>
        <dc:type
           rdf:resource="http://purl.org/dc/dcmitype/StillImage" />
        <dc:title></dc:title>
      </cc:Work>
    </rdf:RDF>
  </metadata>
  <g
     inkscape:label="Layer 1"
     inkscape:groupmode="layer"
     id="layer1">
    <path
       style="fill:none;stroke:#000000;stroke-width:1px;stroke-linecap:butt;stroke-linejoin:miter;stroke-opacity:1"
       d="m 125.71429,260.93361 c 4.7619,-3.80952 8.8313,-8.70137 14.28571,-11.42857 2.55551,-1.27775 5.743,0.40406 8.57143,0 3.8873,-0.55533 7.52582,-2.4235 11.42857,-2.85714 4.73278,-0.52587 9.52381,0 14.28571,0 6.66667,0 13.42404,-1.096 20,0 10.71107,1.78517 20.8696,6.03727 31.42858,8.57143 51.75174,12.42041 37.25192,4.12837 94.28571,28.57142 22.3178,9.56478 43.23374,22.25284 65.71429,31.42858 219.88951,89.75082 -85.80847,-48.8854 157.14285,65.71428 28.06932,13.24025 101.0973,44.54105 128.57143,62.85714 2.37729,1.58486 1.41754,6.09074 0,8.57143 -2.67294,4.67765 -7.84932,7.40192 -11.42857,11.42857 -4.05143,4.55787 -6.8958,10.20623 -11.42857,14.28572 -5.10474,4.59426 -11.42857,7.61905 -17.14286,11.42857 -35.92075,23.94717 3.49972,-1.30937 -40,22.85714 -9.70889,5.39383 -18.86253,11.74903 -28.57143,17.14286 -7.44638,4.13688 -15.23809,7.61905 -22.85714,11.42857 -9.52381,4.76191 -18.71626,10.25405 -28.57143,14.28572 -93.59642,38.28944 18.42109,-11.6082 -62.85714,20 -7.93915,3.08744 -14.918,8.34112 -22.85714,11.42857 -18.99318,7.38623 -34.75017,9.68911 -54.28572,14.28571 -9.98808,2.35014 -32.60552,8.01136 -42.85714,11.42857 -4.86554,1.62185 -9.42018,4.09244 -14.28572,5.71429 -3.72525,1.24175 -7.75182,1.47836 -11.42857,2.85714 -3.98799,1.4955 -7.38796,4.36742 -11.42857,5.71429 -1.80701,0.60234 -4.01061,-0.85184 -5.71428,0 -2.40936,1.20467 -3.61083,4.03152 -5.71429,5.71428 -2.68139,2.14512 -5.89004,3.56917 -8.57143,5.71429 -2.10346,1.68276 -3.80952,3.80952 -5.71428,5.71428 -1.90477,1.90477 -4.22007,3.47296 -5.71429,5.71429 -7.58076,11.37114 -4,9.33333 -8.57143,20 -1.67777,3.9148 -4.5442,7.33327 -5.71428,11.42857 -0.78492,2.74721 0,5.71429 0,8.57143 0,5.71429 0,11.42857 0,17.14286 0,16.19047 0,32.38095 0,48.57143 0,5.71428 0,11.42857 0,17.14285 0,6.66667 -0.51131,13.35297 0,20 0.44431,5.77605 2.37605,11.36976 2.85714,17.14286 1.11504,13.38044 -2.15216,16.88307 2.85714,28.57143 1.35266,3.15621 4.01062,5.59 5.71429,8.57143 17.27693,30.23464 -3.84837,-1.95332 11.42857,17.14285 2.14511,2.6814 3.07632,6.37313 5.71428,8.57143 3.27199,2.72666 7.73057,3.60114 11.42858,5.71429 2.98142,1.70367 5.43352,4.31966 8.57142,5.71428 12.92381,5.74392 20.5449,6.45746 34.28572,8.57143 6.65604,1.02401 13.28548,2.34064 20,2.85715 5.69745,0.43826 11.42857,0 17.14286,0 4.7619,0 9.52381,0 14.28571,0 7.93489,0 20.1366,1.72263 25.71429,-5.71429 2.06031,-2.74709 4.17861,-5.50009 5.71428,-8.57143 1.34687,-2.69374 1.90476,-5.71428 2.85714,-8.57143 0.95239,-2.85714 2.20382,-5.63145 2.85715,-8.57143 2.5134,-11.31031 3.64168,-22.88638 5.71428,-34.28571 2.41194,-13.26566 4.61926,-20.05038 5.71429,-34.28571 0.80349,-10.44534 0,-20.95239 0,-31.42858 0,-5.71428 0.47454,-11.44831 0,-17.14285 -0.98916,-11.86992 -3.99704,-23.30718 -8.57143,-34.28572 -2.45722,-5.89732 -5.54252,-11.51773 -8.57143,-17.14285 -7.15117,-13.28075 -15.86656,-28.51099 -25.71428,-40 -6.13572,-7.15834 -13.33334,-13.33334 -20,-20 -7.61905,-8.57143 -15.56674,-16.86165 -22.85715,-25.71429 -6.05435,-7.35172 -10.64459,-15.89471 -17.14285,-22.85714 -6.90776,-7.40117 -15.69843,-12.84129 -22.85715,-20 -6.20876,-6.20877 -10.93409,-13.79124 -17.14285,-20 -6.20877,-6.20877 -13.79124,-10.9341 -20,-17.14286 -12.74192,-12.74191 -17.67081,-23.2795 -31.42858,-34.28571 -4.33638,-3.46912 -9.52381,-5.71429 -14.28571,-8.57143 -4.7619,-5.71429 -8.75684,-12.16688 -14.28571,-17.14286 -32.94868,-29.65381 3.26499,13.11918 -25.71429,-20 -3.13574,-3.5837 -5.52293,-7.77038 -8.57143,-11.42857 -3.54395,-4.25274 -7.41589,-5.65086 -8.57143,-11.42857 -0.56033,-2.80166 0,-5.71429 0,-8.57143 0,-3.80953 -1.33761,-7.8616 0,-11.42857 1.67202,-4.45871 6.01488,-7.41114 8.57143,-11.42857 4.12231,-6.47792 6.74701,-13.91397 11.42857,-20 9.11651,-11.85146 26.47407,-24.37899 37.14286,-34.28572 6.90884,-6.41535 13.09116,-13.58464 20,-20 6.43431,-5.97471 13.79124,-10.93409 20,-17.14286 6.20876,-6.20876 10.93409,-13.79123 17.14286,-20 8.54017,-8.54017 31.57448,-24.98552 40,-31.42857 25.19723,-19.26847 23.49214,-17.88367 45.71428,-37.14285 7.65056,-6.63049 15.47135,-13.07582 22.85715,-20 22.42564,-21.02404 21.25604,-21.22951 40,-42.85715 6.63048,-7.65055 13.61591,-14.9998 20,-22.85714 32.93291,-40.53282 0.37714,-6.09143 37.14285,-42.857143 4.76191,-4.761905 8.6824,-10.550169 14.28572,-14.285714 6.01811,-4.012075 19.66519,-2.857143 25.71428,-2.857143 5.71429,0 11.42857,0 17.14286,0 1.90476,0 3.8664,-0.461973 5.71429,0 2.066,0.516501 3.73701,2.066233 5.71428,2.857143 2.79629,1.118514 5.87769,1.510272 8.57143,2.857142 1.20468,0.602339 1.90476,1.904762 2.85714,2.857143 1.90476,1.904762 3.80953,3.809524 5.71429,5.714286 3.36675,3.366751 7.55597,6.351296 8.57143,11.428571 0.56033,2.80166 0,5.714285 0,8.571425 0,5.71429 0,11.42858 0,17.14286 0,6.66667 0,13.33333 0,20 0,4.76191 0.59064,9.56058 0,14.28572 -0.70067,5.60535 -6.46475,15.78664 -8.57143,20 -1.90476,3.80952 -4.03652,7.51377 -5.71429,11.42857 -1.18636,2.76818 -1.30764,5.98892 -2.85714,8.57143 -1.38592,2.30986 -4.32837,3.40442 -5.71429,5.71428 -1.5495,2.58251 -1.18655,6.06555 -2.85714,8.57143 -2.24133,3.36199 -5.71428,5.71429 -8.57143,8.57143 -1.90476,1.90476 -3.47296,4.22007 -5.71428,5.71428 -3.54385,2.36257 -7.73057,3.60115 -11.42857,5.71429 -10.68249,6.10428 -9.68542,8.29856 -22.85715,14.28571 -10.96697,4.98499 -23.10056,6.95452 -34.28571,11.42858 -3.95455,1.58181 -7.47403,4.13246 -11.42857,5.71428 -5.59258,2.23703 -11.65937,3.22179 -17.14286,5.71429 -10.62733,4.8306 -16.48152,10.54802 -25.71429,17.14285 -2.79424,1.99589 -5.89003,3.56918 -8.57142,5.71429 -5.41398,4.33118 -10.58131,11.95669 -14.28572,17.14286 -1.99589,2.79424 -4.17862,5.50009 -5.71428,8.57143 -1.62819,3.25637 -5.34812,17.43678 -5.71429,20 -0.40406,2.82842 0,5.71428 0,8.57142 0,4.76191 0,9.52381 0,14.28572 0,1.90476 -0.46197,3.86639 0,5.71428 3.3164,13.26562 23.63655,18.59748 34.28571,22.85715 9.52381,3.80952 18.93154,7.92315 28.57143,11.42857 11.32148,4.1169 22.85715,7.61905 34.28572,11.42857 5.71428,1.90476 11.55028,3.47726 17.14285,5.71429 3.95455,1.58181 7.53649,3.98447 11.42858,5.71428 4.68669,2.08298 9.52381,3.80952 14.28571,5.71429 5.71429,2.85714 11.32674,5.92774 17.14286,8.57143 4.66902,2.12228 9.48353,3.91346 14.28571,5.71428 2.81994,1.05748 5.87769,1.51027 8.57143,2.85714 3.07134,1.53567 5.59,4.01062 8.57143,5.71429 25.37484,14.49991 -0.88293,-2.49338 20,11.42857 2.85714,1.90476 6.14332,3.28618 8.57143,5.71429 1.50584,1.50584 1.5268,4.05135 2.85714,5.71428 2.52415,3.15519 6.76441,4.9574 8.57143,8.57143 1.27775,2.55551 -0.46971,5.75316 0,8.57143 0.49512,2.97072 2.36202,5.60071 2.85714,8.57143 0.46971,2.81827 0,5.71428 0,8.57143 0,4.7619 0,9.52381 0,14.28571 0,11.42857 0,22.85714 0,34.28572 0,32.04705 0.78285,-4.97138 -2.85714,31.42857 -0.37906,3.79061 0.42069,7.64234 0,11.42857 -0.53561,4.82051 -4.17926,20.34168 -5.71429,25.71428 -0.82737,2.89582 -1.18655,6.06555 -2.85714,8.57143 -2.24133,3.36199 -6.04728,5.41624 -8.57143,8.57143 -1.33034,1.66293 -1.35129,4.20844 -2.85714,5.71429 -2.42811,2.4281 -6.14333,3.28618 -8.57143,5.71428 -1.50585,1.50585 -1.67586,3.94236 -2.85714,5.71429 -0.74711,1.12066 -1.90476,1.90476 -2.85715,2.85714 -1.90476,1.90476 -3.30493,4.50961 -5.71428,5.71429 -1.70367,0.85183 -3.8664,-0.46198 -5.71429,0 -2.066,0.5165 -3.73701,2.06623 -5.71428,2.85714 -2.79629,1.11851 -5.71429,1.90476 -8.57143,2.85714 -2.85714,0.95238 -5.59001,2.43123 -8.57143,2.85715 -3.77124,0.53874 -7.61905,0 -11.42857,0 -3.80953,0 -7.61905,0 -11.42857,0 -17.14286,0 -34.28572,0 -51.42857,0 -27.61905,0 -55.2381,0 -82.85715,0 -5.71428,0 -11.42857,0 -17.14285,0 -6.66667,0 -13.35028,-0.47498 -20,0 -7.73246,0.55231 -28.84356,4.43746 -37.14286,5.71428 -53.38252,8.2127 7.20938,-1.83028 -34.28572,5.71429 -2.07657,0.37756 -28.10736,4.46883 -31.42857,5.71428 -15.23809,5.71429 -2.85714,4.76191 -14.28571,14.28572 -3.27199,2.72666 -8.41688,2.70259 -11.42857,5.71428 -8.57143,8.57143 -2.85715,10 -8.57143,17.14286 -2.52415,3.15519 -6.04728,5.41624 -8.57143,8.57143 -3.68164,4.60204 -4.05845,12.17534 -5.71429,17.14286 -0.67343,2.0203 -2.43949,3.62605 -2.85714,5.71428 -0.93388,4.66943 0,9.52381 0,14.28572 0,4.7619 -0.93388,9.61628 0,14.28571 0.67326,3.36629 9.72435,18.29577 11.42857,20 1.50585,1.50585 4.01062,1.57939 5.71429,2.85714 2.15499,1.61625 3.40442,4.32837 5.71428,5.71429 2.58251,1.5495 5.98893,1.30764 8.57143,2.85714 2.30987,1.38592 3.5593,4.09804 5.71429,5.71429 3.68889,2.76666 15.87882,7.54113 20,8.57143 0.92394,0.23098 1.90476,0 2.85714,0 1.90476,0 3.80953,0 5.71429,0 4.7619,0 9.52381,0 14.28571,0"
       id="path2993"
       inkscape:connector-curvature="0" />
  </g>
</svg>
